<!DOCTYPE svg PUBLIC "-//W3C//DTD SVG 1.1//EN" "http://www.w3.org/Graphics/SVG/1.1/DTD/svg11.dtd">

  <!-- Uploaded to: SVG Repo, www.svgrepo.com, Transformed by: SVG Repo Mixer Tools -->
  <svg width="242px"
       height="242px"
       viewBox="-102.4 -102.4 1228.80 1228.80"
       class="icon"
       version="1.1"
       xmlns="http://www.w3.org/2000/svg"
       fill="#000000"
       transform="rotate(0)matrix(1, 0, 0, 1, 0, 0)"
       stroke="#000000"
       stroke-width="1.024">

    <g id="SVGRepo_bgCarrier" stroke-width="0" transform="translate(122.88,122.88), scale(0.76)">

      <rect x="-102.4"
            y="-102.4"
            width="1228.80"
            height="1228.80"
            rx="614.4"
            fill="#2577ff"
            strokewidth="0" />

    </g>

    <g id="SVGRepo_tracerCarrier"
       stroke-linecap="round"
       stroke-linejoin="round"
       stroke="#CCCCCC"
       stroke-width="2.048" />

    <g id="SVGRepo_iconCarrier">

      <path d="M512 512m-448 0a448 448 0 1 0 896 0 448 448 0 1 0-896 0Z" fill="#152B3C" />

      <path d="M512 512m-306.372 0a306.372 306.372 0 1 0 612.744 0 306.372 306.372 0 1 0-612.744 0Z" fill="#EEEEEE" />

      <path d="M492.829 136.68m-25.021 0a25.021 25.021 0 1 0 50.042 0 25.021 25.021 0 1 0-50.042 0Z" fill="#FCB814" />

      <path d="M492.829 898.042m-25.021 0a25.021 25.021 0 1 0 50.042 0 25.021 25.021 0 1 0-50.042 0Z" fill="#FCB814" />

      <path d="M920.031 517.942m-27.733 0a27.733 27.733 0 1 0 55.466 0 27.733 27.733 0 1 0-55.466 0Z" fill="#FCB814" />

      <path d="M112.148 517.361m-25.021 0a25.021 25.021 0 1 0 50.042 0 25.021 25.021 0 1 0-50.042 0Z" fill="#FCB814" />

      <path d="M776.8282 835.9101a27.733 27.733 0 1 0 39.2197-39.22107 27.733 27.733 0 1 0-39.2197 39.22107Z" fill="#FCB814" />

      <path d="M205.952083 265.872292a25.021 25.021 0 1 0 35.38442-35.385655 25.021 25.021 0 1 0-35.38442 35.385655Z" fill="#FCB814" />

      <path d="M776.832372 239.200171a27.733 27.733 0 1 0 39.2197-39.221069 27.733 27.733 0 1 0-39.2197 39.221069Z" fill="#FCB814" />

      <path d="M205.957246 804.215756a25.021 25.021 0 1 0 35.38442-35.385655 25.021 25.021 0 1 0-35.38442 35.385655Z" fill="#FCB814" />

      <path d="M226.649 486.31l64.194-61.427c12.006-11.488 30.858-11.721 43.145-0.532l52.762 48.05c11.949 10.882 30.183 11 42.272 0.271l55.179-48.965c12.262-10.88 30.806-10.585 42.714 0.681l51.148 48.39c11.39 10.776 28.956 11.576 41.277 1.88l68.565-53.948c11.96-9.411 28.927-8.966 40.377 1.059L802 486.31 818.371 512c0 169.203-137.167 306.37-306.371 306.37-169.205 0-306.372-137.167-306.372-306.37l21.021-25.69z" fill="#2577FF" />

      <path d="M369.257 779.001c-52.897-55.061-85.581-129.687-85.581-212.068 0-169.205 137.167-306.372 306.372-306.372 51.023 0 99.028 12.653 141.341 34.716-55.749-58.028-133.967-94.302-220.791-94.302-169.203 0-306.372 137.167-306.372 306.372 0 118.179 67.02 220.55 165.031 271.654z" fill="#030504" />

    </g>

  </svg>