<svg aria-hidden="true"
     xmlns="http://www.w3.org/2000/svg"
     focusable="false"
     role="img"
     viewBox="0 0 20 20"
     class=""
     fill="none"
     stroke="currentColor"
     stroke-linecap="round"
     stroke-linejoin="round">
  <g stroke-width="1.25">
    <path d="M12.5 6.667h.01"></path>
    <path d="M4.91 2.625h10.18a2.284 2.284 0 0 1 2.285 2.284v10.182a2.284 2.284 0 0 1-2.284 2.284H4.909a2.284 2.284 0 0 1-2.284-2.284V4.909a2.284 2.284 0 0 1 2.284-2.284Z"></path>
    <path d="m3.333 12.5 3.334-3.333c.773-.745 1.726-.745 2.5 0l4.166 4.166"></path>
    <path d="m11.667 11.667.833-.834c.774-.744 1.726-.744 2.5 0l1.667 1.667"></path>
  </g>
</svg>