<svg aria-hidden="true"
     xmlns="http://www.w3.org/2000/svg"
     focusable="false"
     role="img"
     viewBox="0 0 20 20"
     class=""
     fill="none"
     stroke="currentColor"
     stroke-linecap="round"
     stroke-linejoin="round">
  <g stroke-width="1.25">
    <path d="M13.542 8.542H6.458a2.5 2.5 0 0 0-2.5 2.5v3.75a2.5 2.5 0 0 0 2.5 2.5h7.084a2.5 2.5 0 0 0 2.5-2.5v-3.75a2.5 2.5 0 0 0-2.5-2.5Z"></path>
    <path d="M10 13.958a1.042 1.042 0 1 0 0-2.083 1.042 1.042 0 0 0 0 2.083Z"></path>
    <path d="M6.667 8.333V5.417C6.667 3.806 8.159 2.5 10 2.5c1.841 0 3.333 1.306 3.333 2.917v2.916"></path>
  </g>
</svg>