<svg viewBox="0 0 723.99 451.69" xmlns:xlink="http://www.w3.org/1999/xlink" xmlns="http://www.w3.org/2000/svg"><defs><style>.cls-1,.cls-14{fill:#a5d7d3;}.cls-1{opacity:0.8;}.cls-2{fill:#739994;}.cls-3{fill:#95c6c1;}.cls-4{fill:#84afaa;}.cls-5{fill:#86b2ac;}.cls-6{fill:#009e8f;}.cls-7{fill:#f59a00;}.cls-8{fill:#fff;}.cls-9{fill:#54a8ba;}.cls-10{clip-path:url(#clip-path);}.cls-11{fill:#007e97;}.cls-12{fill:#f7b038;}.cls-13{fill:#005560;}</style><clipPath id="clip-path"><path d="M634.39,340.36a97.94,97.94,0,0,0,3.49-25.94c0-55.56-46.26-100.6-103.32-100.6s-103.31,45-103.31,100.6a98.33,98.33,0,0,0,3.52,26.06c28.62,21.76,63.34,29.15,99.79,28.87C570.09,369.63,605.46,362.22,634.39,340.36Z" class="cls-1"></path></clipPath></defs><title>error</title><g id="Layer_2"><g id="Layer_1-2"><g id="error"><circle r="88.94" cy="361.42" cx="89.05" class="cls-2"></circle><polygon points="348.11 266.31 358.87 284.89 362.12 271.93 348.11 266.31" class="cls-3"></polygon><polygon points="356.32 345.54 706.8 298.79 625.93 346.24 354.21 368.65 356.32 345.54" class="cls-4"></polygon><polygon points="721.34 267.9 704.68 278.76 707.87 265.1 721.34 267.9" class="cls-3"></polygon><polygon points="349.57 322.01 365.26 330.72 368.17 317.78 364.78 309.31 349.57 322.01" class="cls-5"></polygon><polygon points="355.23 189.55 374.33 213.65 370.11 194.91 355.23 189.55" class="cls-3"></polygon><path d="M683,4.8c-2.88-1.14-9.07,2.84-15.88,8.46L670.08,0c-21.46,9.08-37,36.8-37,36.8h0c-38.31-12.95-71.32-17.1-98.51-16.74-27.47-.36-60.9,3.89-99.72,17.17C431.58,21.73,396.3,0,396.3,0L398,10.12c-5.17-3.86-9.6-6.23-11.91-5.32C377.94,8,336.47,228.94,414,320c31.67,37.22,74.78,49,120.6,48.61,44.58.36,88.94-11.39,120.61-48.61C732.66,228.94,691.19,8,683,4.8Z" class="cls-6"></path><path d="M512.84,395.56l-10.39-9.64V359.36a6.47,6.47,0,1,0-12.93,0v25.58a5.83,5.83,0,0,0-1.64,1.35l-9.27,11.07a6,6,0,0,0,9.25,7.75l2.69-3.21v2.71a6,6,0,0,0,12.07,0v-2.07l2,1.87a6,6,0,0,0,8.2-8.85Z" class="cls-7"></path><path d="M590,395.56l-10.4-9.64V359.36a6.46,6.46,0,1,0-12.92,0v25.58a5.87,5.87,0,0,0-1.65,1.35l-9.27,11.07a6,6,0,0,0,9.26,7.75l2.69-3.21v2.71a6,6,0,0,0,12.07,0v-2.07l2,1.87a6,6,0,0,0,8.21-8.85Z" class="cls-7"></path><path d="M669.44,30.47l-9.12,5,1.76-6.77s-5.87,2.65-21.46,14.12a50.64,50.64,0,0,1-31.75,10c-60.54,4.46-72.48,51-74.36,61.05a77.19,77.19,0,0,0-17.79-33.63C505.83,67.16,487.88,55,458.38,52.81a50.64,50.64,0,0,1-31.75-10C411,31.35,405.16,28.7,405.16,28.7l1.77,6.77-9.11-5s-41.76,100.1,0,148.4l.09.11a77.31,77.31,0,0,0,136.65-28.89A77.32,77.32,0,0,0,687,135.76C693.06,87.13,669.44,30.47,669.44,30.47Z" class="cls-1"></path><path d="M557.25,130.21a56.42,56.42,0,1,0,56.42-56.42A56.42,56.42,0,0,0,557.25,130.21Z" class="cls-8"></path><path d="M511.89,130.21a56.42,56.42,0,1,1-56.43-56.42A56.42,56.42,0,0,1,511.89,130.21Z" class="cls-8"></path><path d="M634.39,340.36a97.94,97.94,0,0,0,3.49-25.94c0-55.56-46.26-100.6-103.32-100.6s-103.31,45-103.31,100.6a98.33,98.33,0,0,0,3.52,26.06c28.62,21.76,63.34,29.15,99.79,28.87C570.09,369.63,605.46,362.22,634.39,340.36Z" class="cls-9"></path><path d="M634.39,340.36a97.94,97.94,0,0,0,3.49-25.94c0-55.56-46.26-100.6-103.32-100.6s-103.31,45-103.31,100.6a98.33,98.33,0,0,0,3.52,26.06c28.62,21.76,63.34,29.15,99.79,28.87C570.09,369.63,605.46,362.22,634.39,340.36Z" class="cls-1"></path><g class="cls-10"><polygon points="485.43 251.34 464.54 251.34 475.21 262.02 485.43 251.34" class="cls-11"></polygon><polygon points="508.77 251.34 487.88 251.34 498.55 262.02 508.77 251.34" class="cls-11"></polygon><polygon points="532.11 251.34 511.22 251.34 521.9 262.02 532.11 251.34" class="cls-11"></polygon><polygon points="555.46 251.34 534.56 251.34 545.24 262.02 555.46 251.34" class="cls-11"></polygon><polygon points="578.79 251.34 557.9 251.34 568.58 262.02 578.79 251.34" class="cls-11"></polygon><polygon points="602.14 251.34 581.25 251.34 591.92 262.02 602.14 251.34" class="cls-11"></polygon><polygon points="625.48 251.34 604.59 251.34 615.26 262.02 625.48 251.34" class="cls-11"></polygon><polygon points="462.09 251.34 441.2 251.34 451.87 262.02 462.09 251.34" class="cls-11"></polygon><polygon points="497.1 237.38 476.21 237.38 486.88 248.06 497.1 237.38" class="cls-11"></polygon><polygon points="520.44 237.38 499.55 237.38 510.22 248.06 520.44 237.38" class="cls-11"></polygon><polygon points="543.78 237.38 522.89 237.38 533.57 248.06 543.78 237.38" class="cls-11"></polygon><polygon points="567.12 237.38 546.23 237.38 556.91 248.06 567.12 237.38" class="cls-11"></polygon><polygon points="590.46 237.38 569.57 237.38 580.25 248.06 590.46 237.38" class="cls-11"></polygon><polygon points="613.81 237.38 592.92 237.38 603.59 248.06 613.81 237.38" class="cls-11"></polygon><polygon points="473.76 237.38 452.87 237.38 463.54 248.06 473.76 237.38" class="cls-11"></polygon><polygon points="660.49 237.38 639.6 237.38 650.28 248.06 660.49 237.38" class="cls-11"></polygon><polygon points="473.76 209.46 452.87 209.46 463.54 220.13 473.76 209.46" class="cls-11"></polygon><polygon points="497.1 209.46 476.21 209.46 486.88 220.13 497.1 209.46" class="cls-11"></polygon><polygon points="520.44 209.46 499.55 209.46 510.23 220.13 520.44 209.46" class="cls-11"></polygon><polygon points="543.78 209.46 522.89 209.46 533.57 220.13 543.78 209.46" class="cls-11"></polygon><polygon points="567.12 209.46 546.23 209.46 556.91 220.13 567.12 209.46" class="cls-11"></polygon><polygon points="590.47 209.46 569.58 209.46 580.25 220.13 590.47 209.46" class="cls-11"></polygon><polygon points="613.81 209.46 592.92 209.46 603.59 220.13 613.81 209.46" class="cls-11"></polygon><polygon points="450.41 209.46 429.52 209.46 440.2 220.13 450.41 209.46" class="cls-11"></polygon><polygon points="660.49 209.46 639.6 209.46 650.28 220.13 660.49 209.46" class="cls-11"></polygon><polygon points="637.15 209.46 616.26 209.46 626.93 220.13 637.15 209.46" class="cls-11"></polygon><polygon points="485.43 223.42 464.54 223.42 475.21 234.09 485.43 223.42" class="cls-11"></polygon><polygon points="508.77 223.42 487.88 223.42 498.55 234.09 508.77 223.42" class="cls-11"></polygon><polygon points="532.11 223.42 511.22 223.42 521.9 234.09 532.11 223.42" class="cls-11"></polygon><polygon points="555.46 223.42 534.56 223.42 545.24 234.09 555.46 223.42" class="cls-11"></polygon><polygon points="578.79 223.42 557.9 223.42 568.58 234.09 578.79 223.42" class="cls-11"></polygon><polygon points="602.14 223.42 581.25 223.42 591.92 234.09 602.14 223.42" class="cls-11"></polygon><polygon points="462.09 223.42 441.2 223.42 451.87 234.09 462.09 223.42" class="cls-11"></polygon><polygon points="672.16 223.42 651.27 223.42 661.95 234.09 672.16 223.42" class="cls-11"></polygon><polygon points="648.82 223.42 627.93 223.42 638.6 234.09 648.82 223.42" class="cls-11"></polygon><polygon points="484.2 307.19 463.31 307.19 473.99 317.87 484.2 307.19" class="cls-11"></polygon><polygon points="507.54 307.19 486.65 307.19 497.33 317.87 507.54 307.19" class="cls-11"></polygon><polygon points="530.88 307.19 509.99 307.19 520.67 317.87 530.88 307.19" class="cls-11"></polygon><polygon points="554.23 307.19 533.34 307.19 544.01 317.87 554.23 307.19" class="cls-11"></polygon><polygon points="577.57 307.19 556.68 307.19 567.35 317.87 577.57 307.19" class="cls-11"></polygon><polygon points="600.91 307.19 580.02 307.19 590.7 317.87 600.91 307.19" class="cls-11"></polygon><polygon points="624.25 307.19 603.36 307.19 614.03 317.87 624.25 307.19" class="cls-11"></polygon><polygon points="460.86 307.19 439.97 307.19 450.64 317.87 460.86 307.19" class="cls-11"></polygon><polygon points="437.52 307.19 416.63 307.19 427.3 317.87 437.52 307.19" class="cls-11"></polygon><polygon points="670.93 307.19 650.04 307.19 660.72 317.87 670.93 307.19" class="cls-11"></polygon><polygon points="647.59 307.19 626.7 307.19 637.38 317.87 647.59 307.19" class="cls-11"></polygon><polygon points="427.07 293.23 406.18 293.23 416.86 303.9 427.07 293.23" class="cls-11"></polygon><polygon points="495.87 293.23 474.98 293.23 485.66 303.9 495.87 293.23" class="cls-11"></polygon><polygon points="519.21 293.23 498.32 293.23 509 303.9 519.21 293.23" class="cls-11"></polygon><polygon points="542.56 293.23 521.67 293.23 532.34 303.9 542.56 293.23" class="cls-11"></polygon><polygon points="565.9 293.23 545.01 293.23 555.68 303.9 565.9 293.23" class="cls-11"></polygon><polygon points="589.24 293.23 568.35 293.23 579.02 303.9 589.24 293.23" class="cls-11"></polygon><polygon points="612.58 293.23 591.69 293.23 602.37 303.9 612.58 293.23" class="cls-11"></polygon><polygon points="635.92 293.23 615.03 293.23 625.71 303.9 635.92 293.23" class="cls-11"></polygon><polygon points="472.53 293.23 451.64 293.23 462.31 303.9 472.53 293.23" class="cls-11"></polygon><polygon points="449.19 293.23 428.3 293.23 438.97 303.9 449.19 293.23" class="cls-11"></polygon><polygon points="659.27 293.23 638.38 293.23 649.05 303.9 659.27 293.23" class="cls-11"></polygon><polygon points="425.85 265.3 404.96 265.3 415.63 275.98 425.85 265.3" class="cls-11"></polygon><polygon points="472.53 265.3 451.64 265.3 462.32 275.98 472.53 265.3" class="cls-11"></polygon><polygon points="495.87 265.3 474.98 265.3 485.66 275.98 495.87 265.3" class="cls-11"></polygon><polygon points="519.22 265.3 498.32 265.3 509 275.98 519.22 265.3" class="cls-11"></polygon><polygon points="542.56 265.3 521.67 265.3 532.34 275.98 542.56 265.3" class="cls-11"></polygon><polygon points="565.9 265.3 545.01 265.3 555.68 275.98 565.9 265.3" class="cls-11"></polygon><polygon points="589.24 265.3 568.35 265.3 579.03 275.98 589.24 265.3" class="cls-11"></polygon><polygon points="612.58 265.3 591.69 265.3 602.37 275.98 612.58 265.3" class="cls-11"></polygon><polygon points="449.19 265.3 428.3 265.3 438.97 275.98 449.19 265.3" class="cls-11"></polygon><polygon points="635.92 265.3 615.03 265.3 625.71 275.98 635.92 265.3" class="cls-11"></polygon><polygon points="484.2 279.26 463.31 279.26 473.99 289.94 484.2 279.26" class="cls-11"></polygon><polygon points="507.54 279.26 486.65 279.26 497.33 289.94 507.54 279.26" class="cls-11"></polygon><polygon points="530.88 279.26 509.99 279.26 520.67 289.94 530.88 279.26" class="cls-11"></polygon><polygon points="554.23 279.26 533.34 279.26 544.01 289.94 554.23 279.26" class="cls-11"></polygon><polygon points="577.57 279.26 556.68 279.26 567.35 289.94 577.57 279.26" class="cls-11"></polygon><polygon points="600.91 279.26 580.02 279.26 590.7 289.94 600.91 279.26" class="cls-11"></polygon><polygon points="624.25 279.26 603.36 279.26 614.03 289.94 624.25 279.26" class="cls-11"></polygon><polygon points="460.86 279.26 439.97 279.26 450.64 289.94 460.86 279.26" class="cls-11"></polygon><polygon points="437.52 279.26 416.63 279.26 427.3 289.94 437.52 279.26" class="cls-11"></polygon><polygon points="670.93 279.26 650.04 279.26 660.72 289.94 670.93 279.26" class="cls-11"></polygon><polygon points="647.59 279.26 626.7 279.26 637.38 289.94 647.59 279.26" class="cls-11"></polygon><polygon points="460.86 363.04 439.97 363.04 450.64 373.71 460.86 363.04" class="cls-11"></polygon><polygon points="484.2 363.04 463.31 363.04 473.99 373.71 484.2 363.04" class="cls-11"></polygon><polygon points="507.54 363.04 486.65 363.04 497.33 373.71 507.54 363.04" class="cls-11"></polygon><polygon points="530.88 363.04 509.99 363.04 520.67 373.71 530.88 363.04" class="cls-11"></polygon><polygon points="554.23 363.04 533.34 363.04 544.01 373.71 554.23 363.04" class="cls-11"></polygon><polygon points="577.57 363.04 556.68 363.04 567.36 373.71 577.57 363.04" class="cls-11"></polygon><polygon points="600.91 363.04 580.02 363.04 590.7 373.71 600.91 363.04" class="cls-11"></polygon><polygon points="624.25 363.04 603.37 363.04 614.04 373.71 624.25 363.04" class="cls-11"></polygon><polygon points="658.04 349.08 637.15 349.08 647.82 359.75 658.04 349.08" class="cls-11"></polygon><polygon points="472.53 349.08 451.64 349.08 462.32 359.75 472.53 349.08" class="cls-11"></polygon><polygon points="495.87 349.08 474.98 349.08 485.66 359.75 495.87 349.08" class="cls-11"></polygon><polygon points="519.22 349.08 498.32 349.08 509 359.75 519.22 349.08" class="cls-11"></polygon><polygon points="542.56 349.08 521.67 349.08 532.34 359.75 542.56 349.08" class="cls-11"></polygon><polygon points="565.9 349.08 545.01 349.08 555.68 359.75 565.9 349.08" class="cls-11"></polygon><polygon points="589.24 349.08 568.35 349.08 579.03 359.75 589.24 349.08" class="cls-11"></polygon><polygon points="612.58 349.08 591.69 349.08 602.37 359.75 612.58 349.08" class="cls-11"></polygon><polygon points="449.19 349.08 428.3 349.08 438.97 359.75 449.19 349.08" class="cls-11"></polygon><polygon points="425.85 349.08 404.96 349.08 415.63 359.75 425.85 349.08" class="cls-11"></polygon><polygon points="635.93 349.08 615.03 349.08 625.71 359.75 635.93 349.08" class="cls-11"></polygon><polygon points="658.74 321.15 637.85 321.15 648.52 331.83 658.74 321.15" class="cls-11"></polygon><polygon points="449.19 321.15 428.3 321.15 438.98 331.83 449.19 321.15" class="cls-11"></polygon><polygon points="472.53 321.15 451.64 321.15 462.32 331.83 472.53 321.15" class="cls-11"></polygon><polygon points="495.87 321.15 474.99 321.15 485.66 331.83 495.87 321.15" class="cls-11"></polygon><polygon points="519.22 321.15 498.32 321.15 509 331.83 519.22 321.15" class="cls-11"></polygon><polygon points="542.56 321.15 521.67 321.15 532.34 331.83 542.56 321.15" class="cls-11"></polygon><polygon points="565.9 321.15 545.01 321.15 555.68 331.83 565.9 321.15" class="cls-11"></polygon><polygon points="589.24 321.15 568.35 321.15 579.03 331.83 589.24 321.15" class="cls-11"></polygon><polygon points="425.85 321.15 404.96 321.15 415.63 331.83 425.85 321.15" class="cls-11"></polygon><polygon points="635.93 321.15 615.03 321.15 625.71 331.83 635.93 321.15" class="cls-11"></polygon><polygon points="612.58 321.15 591.69 321.15 602.37 331.83 612.58 321.15" class="cls-11"></polygon><polygon points="460.86 335.11 439.97 335.11 450.64 345.79 460.86 335.11" class="cls-11"></polygon><polygon points="484.2 335.11 463.31 335.11 473.99 345.79 484.2 335.11" class="cls-11"></polygon><polygon points="507.54 335.11 486.65 335.11 497.33 345.79 507.54 335.11" class="cls-11"></polygon><polygon points="530.88 335.11 509.99 335.11 520.67 345.79 530.88 335.11" class="cls-11"></polygon><polygon points="554.23 335.11 533.34 335.11 544.01 345.79 554.23 335.11" class="cls-11"></polygon><polygon points="577.57 335.11 556.68 335.11 567.36 345.79 577.57 335.11" class="cls-11"></polygon><polygon points="600.91 335.11 580.02 335.11 590.7 345.79 600.91 335.11" class="cls-11"></polygon><polygon points="437.52 335.11 416.63 335.11 427.3 345.79 437.52 335.11" class="cls-11"></polygon><polygon points="669.71 335.11 648.82 335.11 659.49 345.79 669.71 335.11" class="cls-11"></polygon><polygon points="647.59 335.11 626.7 335.11 637.38 345.79 647.59 335.11" class="cls-11"></polygon><polygon points="624.25 335.11 603.37 335.11 614.04 345.79 624.25 335.11" class="cls-11"></polygon></g><polygon points="514.3 154.53 534.57 182.5 534.57 135.31 514.3 154.53" class="cls-12"></polygon><polygon points="534.57 135.31 534.57 182.5 554.83 154.53 534.57 135.31" class="cls-7"></polygon><circle r="23.45" cy="127.66" cx="610.6" class="cls-13"></circle><circle r="23.45" cy="132.76" cx="456.65" class="cls-13"></circle><ellipse ry="8.57" rx="8.61" cy="127.66" cx="616.95" class="cls-8"></ellipse><ellipse ry="8.57" rx="8.61" cy="132.76" cx="465.96" class="cls-8"></ellipse><path d="M431.84,357c.13,8.7,23.74-14.33,39.62-45.19s2.57-91.61-42.37-107.18-58.19,34.85-58.19,34.85c-4.19,23.08,1,54.34-2.73,78.35s-13.72,33.45-12.89,41.56,32.53-19.48,32.53-19.48S372,365.14,373.55,372.67s34.19-27.47,34.19-27.47-9.95,23.71-6.64,31.94,33.24-44.27,34.26-47.32S431.72,348.26,431.84,357Z" class="cls-11"></path><path d="M442.86,300c8.38-1.32,1.63-35.46,1.53-40.12s3.45,1.86,9.69,7.07,3.8-13.6-9.53-31.82S414.19,217,414.19,217c-23.91,2-26,36.88-29.15,54.66s-8.24,40-8,55,27.24-16.13,27.24-16.13,3.46,7.53,8.22,17.76,15.95-39.85,15.95-39.85S434.49,301.35,442.86,300Z" class="cls-1"></path><path d="M617.33,354.3c-2.56,8.31-18.77-20.42-25.35-54.5s23.25-88.65,70.75-91,46.07,49.77,46.07,49.77c-2.46,23.33-16.22,51.87-19.37,76s3.78,35.95.72,43.5-25.76-27.82-25.76-27.82,8.05,28.69,4.48,35.49-25.11-36-25.11-36,2.9,25.55-2.59,32.52-19.49-51.82-19.61-55S619.88,346,617.33,354.3Z" class="cls-11"></path><path d="M622.72,296.57c-7.67-3.61,8.39-34.49,9.79-38.93s-3.83.82-11.28,4.06.17-14.11,18.07-27.86,34.25-9,34.25-9c22.4,8.61,14.62,42.7,12.64,60.65s-3.32,40.72-7.72,55-21.63-23.13-21.63-23.13-5.43,6.26-12.87,14.74-4.13-42.72-4.13-42.72S630.39,300.18,622.72,296.57Z" class="cls-1"></path><path d="M721.34,267.9,357.93,192.35a4.7,4.7,0,0,1-3.62-5.56l10.35-49.14,355.28,79.43Z" class="cls-14"></path><path d="M703.78,345,351.59,271.84a4.62,4.62,0,0,1-3.48-5.53l10.35-49.14,344.28,77.11Z" class="cls-14"></path><polygon points="723.99 222.8 349.57 322.01 364.78 261.31 709.29 169.89 723.99 222.8" class="cls-3"></polygon><polygon points="354.21 330.72 704.68 283.96 708.81 320.01 354.21 368.65 354.21 330.72" class="cls-3"></polygon><path d="M1.62,345s119.68,6.22,173.26-7c1,4.23,7.21,41.69-1.72,52.36S10.77,403.68,10.77,403.68-5,365.83,1.62,345Z" class="cls-3"></path><path d="M354.21,330.72l-182,31.77-51.42-18.64L.11,361.42A88.61,88.61,0,0,0,8.4,399l114.53-29.61,45.53,17.11,185.75-17.82" class="cls-14"></path><path d="M17,309.31,73.17,345l86.25,70.78s-15.44,17-24.48,21.82S.11,338,.11,338,4.2,314.6,17,309.31Z" class="cls-14"></path><path d="M101.54,448,82.8,384.06,64.56,274s22.84-2.65,32.79-.27,35.81,163.74,35.81,163.74S114.64,452.39,101.54,448Z" class="cls-14"></path><path d="M50.82,281.1l72.5,162.42s-27.28,14.39-52.45,5S17,309.31,17,309.31,33.18,287.31,50.82,281.1Z" class="cls-3"></path><path d="M13.23,409.74l113.4-137s25,18.07,27.74,44.8S53.53,427.56,53.53,427.56,26.63,422.8,13.23,409.74Z" class="cls-3"></path><path d="M23.52,421.56s7.27,18.74,39.06,24.34c12.7-13.77,81.55-154.31,81.55-154.31s-8.61-16-31.68-16C88.81,275.6,23.52,421.56,23.52,421.56Z" class="cls-14"></path></g></g></g></svg>